<svg xmlns="http://www.w3.org/2000/svg" viewBox="0 0 22 22">
	<defs>
		<filter id="shadow" x="0" y="0">
		<feDropShadow dx="0.25" dy="0.25" stdDeviation="0.25" />
		</filter>

		<linearGradient id="egg">
		<stop stop-color="#f1c40f" offset="0%" />
		<stop stop-color="#e67e22" offset="100%" />
		</linearGradient>
	</defs>

	<circle fill="#5865f2" cx="11" cy="11" r="11" />
	<path fill="#ffffff" filter="url(#shadow)" d="m4.5 4 2-1 2 2 3-2 1 1-3 3-1 6L7 11l.5-4-3-3Z"/>
	<path fill="#ffffff" filter="url(#shadow)" d="m3.5 8.5.5 8L9.5 19 9 16l-2.5-.5-1-6-2-1Z"/>
	<path fill="#ffffff" filter="url(#shadow)" d="m13.5 12.5-2 1-1 7 2-1-.5-2 2.5 3 2-2-2-2 3-2-1-2.5-3 3.5v-3Z"/>
	<path fill="#ffffff" filter="url(#shadow)" d="m15.5 4c1.656 0 3.5.344 3.5 2 0 1.656-2.344 5.5-4 5.5-.983 0-3.5-1.5-3.5-2.5 0-.841 1-1.327 1-2 0-1.656 1.344-3 3-3Z"/>
	<circle fill="url(#egg)" cx="15.5" cy="7.5" r="1.75" />
</svg>
