<svg xmlns="http://www.w3.org/2000/svg" viewBox="0 0 25.5 13.25">
	<defs>
		<filter id="shadow" x="0" y="0">
		<feDropShadow dx="0.25" dy="0.25" stdDeviation="0.25" />
		</filter>

		<linearGradient id="egg">
		<stop stop-color="#f1c40f" offset="0%" />
		<stop stop-color="#e67e22" offset="100%" />
		</linearGradient>
	</defs>

	<path fill="#ffffff" filter="url(#shadow)" d="M10 2c1.656 0 3.5.344 3.5 2 0 1.656-2.344 5.5-4 5.5C8.517 9.5 6 8 6 7c0-.841 1-1.327 1-2 0-1.656 1.344-3 3-3Z" />
	<path fill="#ffffff" filter="url(#shadow)" d="m0 1.5 2-1 2 2 3-2 1 1-3 3-1 6-1.5-2 .5-4-3-3Z" />
	<path fill="#ffffff" filter="url(#shadow)" d="m14.5 2 .5 8 5.5 2.5-.5-3-2.5-.5-1-6-2-1Z" />
	<path fill="#ffffff" filter="url(#shadow)" d="m21.5.5-2 1-1 7 2-1-.5-2 2.5 3 2-2-2-2 3-2-1-2.5-3 3.5v-3Z" />
	<circle fill="url(#egg)" cx="10" cy="5.5" r="1.75" />
</svg>
